<?xml version="1.0" encoding="UTF-8"?>
<svg width="32px" height="32px" viewBox="0 0 32 32" version="1.1" xmlns="http://www.w3.org/2000/svg" xmlns:xlink="http://www.w3.org/1999/xlink">
    <!-- Generator: Sketch 57.1 (83088) - https://sketch.com -->
    <title>问号备份 3</title>
    <desc>Created with Sketch.</desc>
    <g id="10.21手机号换绑" stroke="none" stroke-width="1" fill="none" fill-rule="evenodd">
        <g id="01个人中心备份" transform="translate(-635.000000, -397.000000)">
            <g id="编组-8" transform="translate(80.000000, 208.000000)">
                <g id="编组-4" transform="translate(0.000000, 124.000000)">
                    <g id="问号备份-3" transform="translate(552.000000, 62.000000)">
                        <rect id="矩形" x="0" y="0" width="38" height="38"></rect>
                        <path d="M19.004,24.168 C18.401,24.168 17.801,24.416 17.374,24.842 C16.947,25.268 16.699,25.867 16.699,26.469 C16.699,27.071 16.947,27.671 17.374,28.096 C17.8,28.522 18.4,28.77 19.004,28.77 C19.608,28.77 20.207,28.522 20.634,28.096 C21.06,27.67 21.309,27.071 21.309,26.469 C21.309,25.867 21.061,25.267 20.634,24.842 C20.208,24.416 19.608,24.168 19.004,24.168 Z M18.98,9.666 C17.426,9.666 16.17,10.142 15.213,11.092 C14.256,12.044 13.698,13.355 13.667,14.563 C13.636,15.771 16.187,15.52 16.281,14.924 C16.381,14.292 16.799,13.271 17.286,12.809 C17.773,12.347 18.38,12.115 19.104,12.115 C19.856,12.115 20.454,12.337 20.897,12.781 C21.34,13.225 21.563,13.759 21.563,14.381 C21.563,14.83 21.437,15.241 21.188,15.614 C21.026,15.85 20.528,16.348 19.698,17.109 C18.868,17.87 18.312,18.555 18.036,19.163 C17.76,19.771 17.62,20.547 17.62,21.491 C17.62,21.581 17.623,21.837 17.63,22.255 L20.217,22.255 C20.203,21.373 20.27,20.76 20.415,20.418 C20.56,20.075 20.933,19.622 21.533,19.06 C22.693,17.973 23.451,17.112 23.806,16.482 C24.16,15.851 24.336,15.18 24.336,14.473 C24.336,13.195 23.854,12.074 22.886,11.111 C21.918,10.148 20.618,9.666 18.982,9.666 L18.98,9.666 Z M19,3 C10.181,3 3,10.177 3,19.001 C3,27.825 10.179,35 19,35 C27.822,35 35,27.825 35,19.001 C35,10.177 27.824,3 19,3 Z M18.99,32.966 C11.276,32.966 5.003,26.692 5.003,18.983 C5.003,11.269 11.277,4.997 18.99,4.997 C26.703,4.997 32.979,11.268 32.979,18.983 C32.98,26.693 26.704,32.966 18.99,32.966 Z" id="形状" fill="#666666" fill-rule="nonzero"></path>
                    </g>
                </g>
            </g>
        </g>
    </g>
</svg>