<?xml version="1.0" encoding="UTF-8"?>
<svg width="21px" height="21px" viewBox="0 0 21 21" version="1.1" xmlns="http://www.w3.org/2000/svg" xmlns:xlink="http://www.w3.org/1999/xlink">
    <title>展开icon</title>
    <g id="页面-1" stroke="none" stroke-width="1" fill="none" fill-rule="evenodd">
        <g id="画板" transform="translate(-807.000000, -862.000000)">
            <g id="展开icon" transform="translate(817.499562, 872.444271) rotate(90.000000) translate(-817.499562, -872.444271) translate(807.499562, 862.444271)">
                <rect id="矩形" fill-opacity="0" fill="#D8D8D8" x="0" y="-1.75736816e-13" width="20" height="20"></rect>
                <path d="M15.3343425,10.4533848 C15.505768,10.0191068 15.4201083,9.50054463 15.0786328,9.14769379 L15.0786328,9.14769379 L15.0786328,9.14769379 L6.57164187,0.353565115 C6.11593572,-0.117855038 5.37880603,-0.117855038 4.92309988,0.353565115 C4.46739373,0.824985268 4.46739373,1.58640024 4.92309988,2.0578204 L12.6043913,10.0005357 L4.92167134,17.943251 C4.46596519,18.4146712 4.46596519,19.1775147 4.92167134,19.6475063 C5.37737748,20.1174979 6.11450718,20.1174979 6.57021333,19.6475063 L15.0757757,10.8533776 C15.1914879,10.7348083 15.2772007,10.5990964 15.3343425,10.4533848 Z" id="路径" fill="#9C9C9C" fill-rule="nonzero"></path>
            </g>
        </g>
    </g>
</svg>